<svg width="116" height="25" viewBox="0 0 116 25" fill="none" xmlns="http://www.w3.org/2000/svg">
<path d="M30.2344 24.3125H25.7031V7.40625H30.2344V24.3125ZM25.4375 3.03125C25.4375 2.35417 25.6615 1.79688 26.1094 1.35938C26.5677 0.921875 27.1875 0.703125 27.9688 0.703125C28.7396 0.703125 29.3542 0.921875 29.8125 1.35938C30.2708 1.79688 30.5 2.35417 30.5 3.03125C30.5 3.71875 30.2656 4.28125 29.7969 4.71875C29.3385 5.15625 28.7292 5.375 27.9688 5.375C27.2083 5.375 26.5938 5.15625 26.125 4.71875C25.6667 4.28125 25.4375 3.71875 25.4375 3.03125Z" fill="#E1E1E6"/>
<path d="M33.75 21.7812C33.75 21.0625 33.9896 20.4792 34.4687 20.0312C34.9583 19.5833 35.5677 19.3594 36.2969 19.3594C37.0365 19.3594 37.6458 19.5833 38.125 20.0312C38.6146 20.4792 38.8594 21.0625 38.8594 21.7812C38.8594 22.4896 38.6198 23.0677 38.1406 23.5156C37.6615 23.9531 37.0469 24.1719 36.2969 24.1719C35.5573 24.1719 34.9479 23.9531 34.4687 23.5156C33.9896 23.0677 33.75 22.4896 33.75 21.7812Z" fill="#E1E1E6"/>
<path d="M46.9844 7.09375L47.125 9.04688C48.3333 7.53646 49.9531 6.78125 51.9844 6.78125C53.776 6.78125 55.1094 7.30729 55.9844 8.35938C56.8594 9.41146 57.3073 10.9844 57.3281 13.0781V24H52.8125V13.1875C52.8125 12.2292 52.6042 11.5365 52.1875 11.1094C51.7708 10.6719 51.0781 10.4531 50.1094 10.4531C48.8385 10.4531 47.8854 10.9948 47.25 12.0781V24H42.7344V7.09375H46.9844Z" fill="#E1E1E6"/>
<path d="M68.5469 24.3125C66.0677 24.3125 64.0469 23.5521 62.4844 22.0312C60.9323 20.5104 60.1562 18.4844 60.1562 15.9531V15.5156C60.1562 13.8177 60.4844 12.3021 61.1406 10.9688C61.7969 9.625 62.7239 8.59375 63.9219 7.875C65.1302 7.14583 66.5052 6.78125 68.0469 6.78125C70.3594 6.78125 72.1771 7.51042 73.5 8.96875C74.8333 10.4271 75.5 12.4948 75.5 15.1719V17.0156H64.7344C64.8802 18.1198 65.3177 19.0052 66.0469 19.6719C66.7865 20.3385 67.7187 20.6719 68.8437 20.6719C70.5833 20.6719 71.9427 20.0417 72.9219 18.7812L75.1406 21.2656C74.4635 22.224 73.5469 22.974 72.3906 23.5156C71.2344 24.0469 69.9531 24.3125 68.5469 24.3125ZM68.0312 10.4375C67.1354 10.4375 66.4062 10.7396 65.8437 11.3438C65.2917 11.9479 64.9375 12.8125 64.7812 13.9375H71.0625V13.5781C71.0417 12.5781 70.7708 11.8073 70.25 11.2656C69.7292 10.7135 68.9896 10.4375 68.0312 10.4375Z" fill="#E1E1E6"/>
<path d="M92.7812 17.8594L95 7.09375H99.3594L95.0469 24H91.2656L88.0625 13.3594L84.8594 24H81.0937L76.7812 7.09375H81.1406L83.3437 17.8438L86.4375 7.09375H89.7031L92.7812 17.8594Z" fill="#E1E1E6"/>
<path d="M110.766 19.3281C110.766 18.776 110.49 18.3438 109.937 18.0312C109.396 17.7083 108.521 17.4219 107.312 17.1719C103.292 16.3281 101.281 14.6198 101.281 12.0469C101.281 10.5469 101.901 9.29688 103.141 8.29688C104.391 7.28646 106.021 6.78125 108.031 6.78125C110.177 6.78125 111.891 7.28646 113.172 8.29688C114.464 9.30729 115.109 10.6198 115.109 12.2344H110.594C110.594 11.5885 110.385 11.0573 109.969 10.6406C109.552 10.2135 108.901 10 108.016 10C107.255 10 106.667 10.1719 106.25 10.5156C105.833 10.8594 105.625 11.2969 105.625 11.8281C105.625 12.3281 105.859 12.7344 106.328 13.0469C106.807 13.349 107.609 13.6146 108.734 13.8438C109.859 14.0625 110.807 14.3125 111.578 14.5938C113.964 15.4688 115.156 16.9844 115.156 19.1406C115.156 20.6823 114.495 21.9323 113.172 22.8906C111.849 23.8385 110.141 24.3125 108.047 24.3125C106.63 24.3125 105.37 24.0625 104.266 23.5625C103.172 23.0521 102.312 22.3594 101.687 21.4844C101.062 20.599 100.75 19.6458 100.75 18.625H105.031C105.073 19.4271 105.37 20.0417 105.922 20.4688C106.474 20.8958 107.214 21.1094 108.141 21.1094C109.005 21.1094 109.656 20.9479 110.094 20.625C110.542 20.2917 110.766 19.8594 110.766 19.3281Z" fill="#E1E1E6"/>
<path d="M16.552 10.8245C18.184 10.8245 19.496 11.3285 20.488 12.3365C21.496 13.3285 22 14.7205 22 16.5125V24.3125H18.64V16.9685C18.64 15.9285 18.376 15.1365 17.848 14.5925C17.32 14.0325 16.6 13.7525 15.688 13.7525C14.776 13.7525 14.048 14.0325 13.504 14.5925C12.976 15.1365 12.712 15.9285 12.712 16.9685V24.3125H9.35199V16.9685C9.35199 15.9285 9.088 15.1365 8.56 14.5925C8.032 14.0325 7.31199 13.7525 6.39999 13.7525C5.47199 13.7525 4.73599 14.0325 4.19199 14.5925C3.66399 15.1365 3.39999 15.9285 3.39999 16.9685V24.3125H0.0399933V11.0165H3.39999V12.6245C3.83199 12.0645 4.384 11.6245 5.056 11.3045C5.744 10.9845 6.496 10.8245 7.312 10.8245C8.352 10.8245 9.27999 11.0485 10.096 11.4965C10.912 11.9285 11.544 12.5525 11.992 13.3685C12.424 12.6005 13.048 11.9845 13.864 11.5205C14.696 11.0565 15.592 10.8245 16.552 10.8245Z" fill="#E1E1E6"/>
</svg>
