<svg width="173" height="40" viewBox="0 0 173 40" fill="none" xmlns="http://www.w3.org/2000/svg">
<path d="M111 14V16V20.2V28H107.64V20.656V18V16L106 19L104.5 22L101.712 28H98.352L95.5949 22L95.0949 21L94.5949 20L94 19L92.4 16V20.656V28H89.04V8H92.4L94.5949 13L95.0949 14L100 25.5L107.64 8L111 8V12.5V14Z" fill="white"/>
<path d="M119.997 28.216C118.717 28.216 117.565 27.936 116.541 27.376C115.517 26.8 114.709 25.992 114.117 24.952C113.541 23.912 113.253 22.712 113.253 21.352C113.253 19.992 113.549 18.792 114.141 17.752C114.749 16.712 115.573 15.912 116.613 15.352C117.653 14.776 118.813 14.488 120.093 14.488C121.373 14.488 122.533 14.776 123.573 15.352C124.613 15.912 125.429 16.712 126.021 17.752C126.629 18.792 126.933 19.992 126.933 21.352C126.933 22.712 126.621 23.912 125.997 24.952C125.389 25.992 124.557 26.8 123.501 27.376C122.461 27.936 121.293 28.216 119.997 28.216ZM119.997 25.288C120.605 25.288 121.173 25.144 121.701 24.856C122.245 24.552 122.677 24.104 122.997 23.512C123.317 22.92 123.477 22.2 123.477 21.352C123.477 20.088 123.141 19.12 122.469 18.448C121.813 17.76 121.005 17.416 120.045 17.416C119.085 17.416 118.277 17.76 117.621 18.448C116.981 19.12 116.661 20.088 116.661 21.352C116.661 22.616 116.973 23.592 117.597 24.28C118.237 24.952 119.037 25.288 119.997 25.288Z" fill="white"/>
<path d="M136.766 14.512C138.35 14.512 139.63 15.016 140.606 16.024C141.582 17.016 142.07 18.408 142.07 20.2V28H138.71V20.656C138.71 19.6 138.446 18.792 137.918 18.232C137.39 17.656 136.67 17.368 135.758 17.368C134.83 17.368 134.094 17.656 133.55 18.232C133.022 18.792 132.758 19.6 132.758 20.656V28H129.398V14.704H132.758V16.36C133.206 15.784 133.774 15.336 134.462 15.016C135.166 14.68 135.934 14.512 136.766 14.512Z" fill="white"/>
<path d="M157.625 21.064C157.625 21.544 157.593 21.976 157.529 22.36H147.809C147.889 23.32 148.225 24.072 148.817 24.616C149.409 25.16 150.137 25.432 151.001 25.432C152.249 25.432 153.137 24.896 153.665 23.824H157.289C156.905 25.104 156.169 26.16 155.081 26.992C153.993 27.808 152.657 28.216 151.073 28.216C149.793 28.216 148.641 27.936 147.617 27.376C146.609 26.8 145.817 25.992 145.241 24.952C144.681 23.912 144.401 22.712 144.401 21.352C144.401 19.976 144.681 18.768 145.241 17.728C145.801 16.688 146.585 15.888 147.593 15.328C148.601 14.768 149.761 14.488 151.073 14.488C152.337 14.488 153.465 14.76 154.457 15.304C155.465 15.848 156.241 16.624 156.785 17.632C157.345 18.624 157.625 19.768 157.625 21.064ZM154.145 20.104C154.129 19.24 153.817 18.552 153.209 18.04C152.601 17.512 151.857 17.248 150.977 17.248C150.145 17.248 149.441 17.504 148.865 18.016C148.305 18.512 147.961 19.208 147.833 20.104H154.145Z" fill="white"/>
<path d="M172.798 14.704L164.566 34.288H160.99L163.87 27.664L158.542 14.704H162.31L165.742 23.992L169.222 14.704H172.798Z" fill="white"/>
<path d="M64.112 14.6306C65.744 14.6306 67.056 15.1346 68.048 16.1426C69.056 17.1346 69.56 18.5266 69.56 20.3186V28.1186H66.2V20.7746C66.2 19.7346 65.936 18.9426 65.408 18.3986C64.88 17.8386 64.16 17.5586 63.248 17.5586C62.336 17.5586 61.608 17.8386 61.064 18.3986C60.536 18.9426 60.272 19.7346 60.272 20.7746V28.1186H56.912V20.7746C56.912 19.7346 56.648 18.9426 56.12 18.3986C55.592 17.8386 54.872 17.5586 53.96 17.5586C53.032 17.5586 52.296 17.8386 51.752 18.3986C51.224 18.9426 50.96 19.7346 50.96 20.7746V28.1186H47.6V14.8226H50.96V16.4306C51.392 15.8706 51.944 15.4306 52.616 15.1106C53.304 14.7906 54.056 14.6306 54.872 14.6306C55.912 14.6306 56.84 14.8546 57.656 15.3026C58.472 15.7346 59.104 16.3586 59.552 17.1746C59.984 16.4066 60.608 15.7906 61.424 15.3266C62.256 14.8626 63.152 14.6306 64.112 14.6306Z" fill="white"/>
<path d="M84.668 14.704L76.436 34.288H72.86L75.74 27.664L70.412 14.704H74.18L77.612 23.992L81.092 14.704H84.668Z" fill="white"/>
<path d="M34.1422 5.85781C30.3647 2.08031 25.3422 0 20 0C14.6578 0 9.63531 2.08031 5.85781 5.85781C2.08031 9.63531 0 14.6578 0 20C0 25.3422 2.08039 30.3646 5.85781 34.1422C9.63523 37.9198 14.6578 40 20 40C25.3422 40 30.3647 37.9197 34.1422 34.1422C37.9197 30.3647 40 25.3422 40 20C40 14.6578 37.9196 9.63539 34.1422 5.85781Z" fill="#33CC95"/>
<g clip-path="url(#clip0_35212_417)">
<path d="M20.5714 8V33.1429" stroke="white" stroke-width="2" stroke-linecap="round" stroke-linejoin="round"/>
<path d="M26.2857 12.5714H17.7143C16.6534 12.5714 15.636 12.9929 14.8859 13.743C14.1357 14.4931 13.7143 15.5106 13.7143 16.5714C13.7143 17.6323 14.1357 18.6497 14.8859 19.3999C15.636 20.15 16.6534 20.5714 17.7143 20.5714H23.4286C24.4894 20.5714 25.5069 20.9929 26.257 21.743C27.0072 22.4932 27.4286 23.5106 27.4286 24.5714C27.4286 25.6323 27.0072 26.6497 26.257 27.3999C25.5069 28.15 24.4894 28.5714 23.4286 28.5714H13.7143" stroke="white" stroke-width="2" stroke-linecap="round" stroke-linejoin="round"/>
</g>
<defs>
<clipPath id="clip0_35212_417">
<rect width="27.4286" height="27.4286" fill="white" transform="translate(6.85715 6.85714)"/>
</clipPath>
</defs>
</svg>
